<?xml version="1.0" encoding="UTF-8"?>
<svg width="12px" height="12px" viewBox="0 0 12 12" version="1.1" xmlns="http://www.w3.org/2000/svg" xmlns:xlink="http://www.w3.org/1999/xlink">
    <!-- Generator: Sketch 54.1 (76490) - https://sketchapp.com -->
    <title>cart</title>
    <desc>Created with Sketch.</desc>
    <g id="Pages" stroke="none" stroke-width="1" fill="none" fill-rule="evenodd">
        <g id="Index" transform="translate(-1218.000000, -2544.000000)" fill="#FFC600" fill-rule="nonzero">
            <g id="footer" transform="translate(0.000000, 2472.000000)">
                <g id="cart" transform="translate(1218.000000, 72.000000)">
                    <path d="M11.864,3.017 C11.783,2.92001266 11.663361,2.86366889 11.537,2.863 L9.225,2.863 L9.225,4.09 C9.225,4.653 8.741,5.112 8.145,5.112 C7.551,5.112 7.067,4.654 7.067,4.09 L7.067,2.863 L4.909,2.863 L4.909,4.09 C4.909,4.653 4.424,5.112 3.829,5.112 C3.234,5.112 2.751,4.654 2.751,4.09 L2.751,2.863 L0.438,2.863 C0.311669929,2.86380516 0.192085359,2.92012328 0.111,3.017 C0.0272492552,3.11637604 -0.0118211461,3.24588719 0.003,3.375 L0.779,10.509 C0.794,11.315 1.421,11.964 2.19,11.964 L9.785,11.964 C10.555,11.964 11.181,11.315 11.196,10.509 L11.972,3.375 C11.9863427,3.24593049 11.9473281,3.11660458 11.864,3.017 Z" id="Shape"></path>
                    <path d="M3.829,4.499 C4.068,4.499 4.262,4.315 4.262,4.09 L4.262,1.84 C4.262,1.208 4.934,0.818 5.557,0.818 L6.636,0.818 C7.291,0.818 7.714,1.219 7.714,1.84 L7.714,4.09 C7.714,4.315 7.908,4.499 8.145,4.499 C8.384,4.499 8.578,4.315 8.578,4.09 L8.578,1.84 C8.577,0.773 7.761,0 6.636,0 L5.557,0 C4.367,0 3.398,0.826 3.398,1.84 L3.398,4.09 C3.398,4.315 3.592,4.499 3.829,4.499 Z" id="Shape"></path>
                </g>
            </g>
        </g>
    </g>
</svg>