<?xml version="1.0" encoding="UTF-8"?>
<svg width="27px" height="23px" viewBox="0 0 27 23" version="1.1" xmlns="http://www.w3.org/2000/svg" xmlns:xlink="http://www.w3.org/1999/xlink">
    <!-- Generator: Sketch 55.1 (78136) - https://sketchapp.com -->
    <title>checkbox-on</title>
    <desc>Created with Sketch.</desc>
    <g id="Pages" stroke="none" stroke-width="1" fill="none" fill-rule="evenodd">
        <g id="Catalog" transform="translate(-198.000000, -746.000000)" fill="#000000">
            <g id="filter" transform="translate(0.000000, 405.000000)">
                <g id="checkbox-on" transform="translate(198.000000, 341.000000)">
                    <g id="Shape">
                        <polygon fill-rule="nonzero" points="7.285 7.486 4.456 10.315 12.239 18.098 26.171 4.166 23.343 1.337 12.239 12.439"></polygon>
                        <path d="M21,20 C21,20.542 20.542,21 20,21 L3,21 C2.458,21 2,20.542 2,20 L2,3 C2,2.458 2.458,2 3,2 L19.908,2 L21.493,0.415 C21.0410154,0.146541778 20.5256891,0.00329969409 20,0 L3,0 C1.35,0 0,1.35 0,3 L0,20 C0,21.65 1.35,23 3,23 L20,23 C21.65,23 23,21.65 23,20 L23,10.171 L21,12.171 L21,20 Z" fill-rule="nonzero"></path>
                    </g>
                </g>
            </g>
        </g>
    </g>
</svg>