<?xml version="1.0" encoding="UTF-8"?>
<svg width="156px" height="186px" viewBox="0 0 156 186" version="1.1" xmlns="http://www.w3.org/2000/svg" xmlns:xlink="http://www.w3.org/1999/xlink">
    <!-- Generator: Sketch 54.1 (76490) - https://sketchapp.com -->
    <title>credit</title>
    <desc>Created with Sketch.</desc>
    <g id="Pages" stroke="none" stroke-width="1" fill="none" fill-rule="evenodd">
        <g id="Index" transform="translate(-1074.000000, -1203.000000)" fill-rule="nonzero">
            <g id="services" transform="translate(-5.000000, 1142.000000)">
                <g id="Credit" transform="translate(145.000000, 61.000000)">
                    <g id="credit" transform="translate(934.000000, 0.000000)">
                        <g id="Group" transform="translate(7.000000, 5.000000)" fill="#FFFFFF">
                            <circle id="Oval" cx="134.25" cy="63.877" r="14.75"></circle>
                            <path d="M82.113,134.544 L75.039,152.419 L52.215,167.336 C49.96981,168.606385 48.581579,170.986319 48.581,173.566 C48.581,177.524225 51.7897752,180.733 55.748,180.733 C57.2242462,180.73405 58.6643284,180.27627 59.869,179.423 C63.63,177.052 82.22,165.339 85.364,163.543 C88.864,161.543 89.489,158.418 89.489,158.418 L94.364,142.418 L88.614,139.793 C82.864,137.168 82.113,134.544 82.113,134.544 Z" id="Shape"></path>
                            <path d="M132.321,136.462 C132.321,136.462 131.163,132.628 127.742,131.295 C124.321,129.962 109.655,123.545 109.655,123.545 L125.071,97.961 C125.071,97.961 128.905,88.961 124.738,84.544 C120.571,80.127 110.988,74.794 110.988,74.794 L103.467,74.794 L119.266,47.993 C122.62,42.307 120.709,34.912 115.024,31.561 L65.633,2.447 C59.947,-0.905 52.554,1.005 49.202,6.691 L2.144,86.519 C-1.207,92.204 0.702,99.599 6.388,102.951 L55.778,132.064 C61.464,135.416 68.859,133.505 72.21,127.822 L95.144,88.919 L103.24,88.919 L88.49,115.128 C88.49,115.128 83.356,124.342 88.156,129.378 C92.365,133.794 100.823,136.294 100.823,136.294 L118.073,142.795 L123.174,174.086 L123.183,174.085 C123.732,177.498 126.682,180.108 130.25,180.108 C132.150715,180.108 133.973566,179.352876 135.317481,178.008774 C136.661395,176.664672 137.416265,174.841715 137.416,172.941 C137.416,172.752 137.402,172.566 137.388,172.381 L137.416,172.377 L132.321,136.462 L132.321,136.462 Z M10.958,95.198 C9.557,94.372 9.071,92.49 9.897,91.09 L56.956,11.261 C57.782,9.86 59.663,9.373 61.063,10.199 L72.584,16.991 L22.48,101.989 L10.958,95.198 L10.958,95.198 Z M64.456,123.252 C63.63,124.652 61.749,125.139 60.349,124.313 L30.233,106.559 L80.34,21.563 L110.453,39.316 C111.855,40.142 112.34,42.023 111.515,43.423 L93.022,74.795 L84.239,74.795 L64.323,89.222 C63.8825495,89.4745197 63.4702271,89.7732021 63.093,90.113 L63.062,90.135 L63.064,90.138 C61.5625906,91.4924749 60.7057089,93.4199139 60.706,95.442 C60.706,99.4002248 63.9147752,102.609 67.873,102.609 C69.3610994,102.609747 70.8120442,102.144284 72.022,101.278 L72.024,101.281 L72.095,101.223 C72.277,101.09 72.451,100.95 72.619,100.8 L82.279,93.016 L64.456,123.252 L64.456,123.252 Z" id="Shape"></path>
                        </g>
                        <path d="M49.219,5.943 L2.161,85.772 C-1.19,91.457 0.719,98.852 6.405,102.204 L55.795,131.317 C61.481,134.669 68.876,132.758 72.227,127.075 L119.284,47.246 C122.638,41.56 120.727,34.165 115.042,30.814 L65.65,1.7 C59.965,-1.652 52.571,0.258 49.219,5.943 Z M9.914,90.343 L56.973,10.514 C57.799,9.113 59.68,8.626 61.08,9.452 L72.601,16.244 L22.496,101.242 L10.974,94.451 C9.574,93.625 9.088,91.743 9.914,90.343 Z M111.531,42.676 L64.472,122.505 C63.646,123.905 61.765,124.392 60.365,123.566 L30.249,105.812 L80.355,20.816 L110.468,38.569 C111.871,39.394 112.355,41.275 111.531,42.676 L111.531,42.676 Z" id="Shape" fill="#F0C42E"></path>
                        <g id="Group" transform="translate(48.000000, 48.000000)" fill="#3A3A3A">
                            <circle id="Oval" cx="87.25" cy="15.083" r="14.75"></circle>
                            <path d="M33.875,85.75 L26.801,103.625 L3.976,118.542 C1.73081004,119.812385 0.342578972,122.192319 0.342,124.772 C0.342,128.730225 3.5507752,131.939 7.509,131.939 C8.98524622,131.94005 10.4253284,131.48227 11.63,130.629 C15.391,128.258 33.981,116.545 37.125,114.749 C40.625,112.749 41.25,109.624 41.25,109.624 L46.125,93.624 L40.375,90.999 C34.625,88.374 33.875,85.75 33.875,85.75 L33.875,85.75 Z M84.083,87.668 C84.083,87.668 82.925,83.834 79.504,82.501 C76.083,81.168 61.417,74.751 61.417,74.751 L76.833,49.167 C76.833,49.167 80.667,40.167 76.5,35.75 C72.333,31.333 62.75,26 62.75,26 L36,26 L16.085,40.427 C15.6447661,40.6798548 15.2324779,40.9785124 14.855,41.318 L14.824,41.34 L14.826,41.343 C13.324641,42.6970904 12.4677401,44.6242088 12.468,46.646 C12.468,50.6042248 15.6767752,53.813 19.635,53.813 C21.1230994,53.813747 22.5740442,53.3482836 23.784,52.482 L23.786,52.485 L23.857,52.427 C24.039,52.294 24.214,52.154 24.382,52.004 L39.125,40.123 L55,40.123 L40.25,66.332 C40.25,66.332 35.116,75.546 39.916,80.582 C44.125,84.998 52.583,87.498 52.583,87.498 L69.833,93.999 L74.934,125.29 L74.943,125.289 C75.492,128.702 78.442,131.312 82.01,131.312 C83.9107146,131.312 85.7335663,130.556876 87.0774808,129.212774 C88.4213952,127.868672 89.1762652,126.045715 89.176,124.145 C89.176,123.956 89.162,123.77 89.148,123.585 L89.176,123.581 L84.083,87.668 L84.083,87.668 Z" id="Shape"></path>
                        </g>
                    </g>
                </g>
            </g>
        </g>
    </g>
</svg>