<?xml version="1.0" encoding="UTF-8"?>
<svg width="139px" height="165px" viewBox="0 0 139 165" version="1.1" xmlns="http://www.w3.org/2000/svg" xmlns:xlink="http://www.w3.org/1999/xlink">
    <!-- Generator: Sketch 54.1 (76490) - https://sketchapp.com -->
    <title>Group 2</title>
    <desc>Created with Sketch.</desc>
    <g id="Pages" stroke="none" stroke-width="1" fill="none" fill-rule="evenodd">
        <g id="Index" transform="translate(-1098.000000, -1226.000000)" fill-rule="nonzero">
            <g id="services" transform="translate(-5.000000, 1142.000000)">
                <g id="Delivery" transform="translate(138.000000, 72.000000)">
                    <g id="delivery">
                        <g id="Group-2" transform="translate(965.001039, 12.754000)">
                            <g id="Group" transform="translate(5.998961, 5.246000)" fill="#FFFFFF">
                                <path d="M87.133,33.767 C95.254,33.767 102.078,28.225 104.033,20.718 L109.5,21.532 C110.678009,21.7061898 111.774624,20.8936837 111.951,19.716 C112.126348,18.5377012 111.313298,17.4403528 110.135,17.265 L104.594,16.44 C104.596,16.394 104.598,16.349 104.598,16.302 C104.598,16.12 104.592,15.94 104.584,15.76 C104.584,15.76 104.133,9.242 103.51,6.523 C102.889,3.804 100.975,3.227 100.975,3.227 C91.205,1.015 81.203,0.789 78.6,0.789 C75.997,0.789 75.442,2.121 75.442,2.121 L72.292,7.117 L72.282,7.114 C72.206,7.236 72.136,7.359 72.063,7.482 L72.036,7.525 C70.4826044,10.1889884 69.6656818,13.2181937 69.669,16.302 C69.668,25.948 77.488,33.767 87.133,33.767 L87.133,33.767 Z M125.535,73.076 L125.535,73.074 L98.793,70.906 L89.547,49.794 C89.547,49.794 89.086,47.02 83.539,41.318 C77.99,35.616 66.74,37.928 66.74,37.928 C66.74,37.928 42.854,42.397 34.995,44.246 C27.135,46.096 26.827,54.109 26.827,54.109 L26.195,58.628 L11.017,55.687 C9.39197005,55.3787121 7.82236784,56.4385061 7.501,58.061 L0.09,96.303 C-0.220555165,97.9288283 0.840793567,99.5000713 2.465,99.819 L53.661,109.742 C53.776,109.764 53.891,109.766 54.007,109.775 L54.009,109.775 C53.281,109.879 52.718,109.74 52.718,109.74 L43.318,107.891 L40.236,124.996 L16.676,145.359 C14.5104679,147.067936 13.4700129,149.835985 13.9737095,152.548232 C14.477406,155.260478 16.4423281,157.470393 19.0770445,158.287866 C21.7117609,159.105339 24.5825055,158.395785 26.533,156.445 C26.533,156.445 54.258,134.395 56.108,132.854 C57.958,131.314 58.881,129.001 58.881,129.001 C58.881,129.001 63.422,115.053 64.66,112.127 C65.508,110.123 69.592,111.048 69.592,111.048 L92.477,119.679 L100.092,148.741 C100.174,149.371 100.334,149.975 100.565,150.545 L100.567,150.545 C102.02114,154.153422 106.013132,156.028541 109.718738,154.843755 C113.424344,153.65897 115.588012,149.815714 114.679,146.033 C113.837,141.068 110.075,118.987 109.118,114.207 C108.04,108.813 104.497,107.273 104.497,107.273 C104.497,107.273 83.229,95.715 81.843,94.944 C80.456,94.174 80.765,92.17 80.765,92.17 L84.695,77.839 L87.468,83.695 C87.468,83.695 89.087,86.969 91.552,87.086 L124.909,87.906 C126.879732,87.906 128.769733,87.1230614 130.163157,85.7294498 C131.556581,84.3358383 132.339265,82.4457318 132.339,80.475 C132.33662,76.6159582 129.380321,73.4011353 125.535,73.076 L125.535,73.076 Z M54.104,57.807 L52.315,63.687 L62.213,65.606 L41.999,61.689 L42.547,59.193 L54.104,57.807 Z M51.855,103.28 L6.551,94.499 L12.821,62.146 L25.363,64.577 L23.745,76.144 L23.105,80.55 C23.1,80.576 23.097,80.606 23.093,80.632 L23.075,80.759 L23.077,80.759 C22.8039166,82.8772686 23.4556018,85.0106125 24.8657716,86.6146878 C26.2759414,88.2187631 28.3082013,89.1384204 30.444,89.139 C32.5774166,89.1388457 34.6077732,88.2213894 36.0178061,86.6203667 C37.427839,85.019344 38.0814056,82.8893381 37.812,80.773 L40.713,67.55 L58.126,70.924 L51.855,103.28 L51.855,103.28 Z M19.05,12.008 L57.077,12.008 C58.177,12.008 59.077,11.112 59.077,10.018 C59.077,8.924 58.177,8.028 57.077,8.028 L19.05,8.028 C17.95,8.028 17.05,8.924 17.05,10.018 C17.05,11.112 17.95,12.008 19.05,12.008 Z M32.08,18.025 C30.98,18.025 30.08,18.921 30.08,20.015 C30.08,21.109 30.98,22.005 32.08,22.005 L55.039,22.005 C56.139,22.005 57.039,21.109 57.039,20.015 C57.0334966,18.9143377 56.139676,18.0249862 55.039,18.025 L32.08,18.025 L32.08,18.025 Z" id="Shape"></path>
                            </g>
                            <path d="M87.0969609,32.978 C95.2179609,32.978 102.041961,27.436 103.996961,19.929 L109.463961,20.743 C110.64197,20.9171898 111.738585,20.1046837 111.914961,18.927 C112.090309,17.7487012 111.277259,16.6513528 110.098961,16.476 L104.557961,15.651 C104.559961,15.605 104.561961,15.56 104.561961,15.513 C104.561961,15.331 104.555961,15.151 104.547961,14.971 C104.547961,14.971 104.096961,8.453 103.473961,5.734 C102.852961,3.015 100.938961,2.438 100.938961,2.438 C91.1689609,0.226 81.1669609,-2.84217094e-14 78.5629609,-2.84217094e-14 C75.9589609,-2.84217094e-14 75.4049609,1.332 75.4049609,1.332 L72.2549609,6.328 L72.2449609,6.325 C72.1689609,6.446 72.0989609,6.57 72.0259609,6.693 L71.9989609,6.736 C70.4455652,9.39998837 69.6286427,12.4291937 69.6319609,15.513 C69.6319609,25.159 77.4519609,32.978 87.0969609,32.978 Z M125.498961,72.287 L125.498961,72.285 L98.7569609,70.117 L89.5109609,49.005 C89.5109609,49.005 89.0499609,46.231 83.5029609,40.529 C77.9539609,34.827 66.7039609,37.139 66.7039609,37.139 C66.7039609,37.139 42.8179609,41.608 34.9589609,43.456 C27.0989609,45.306 26.7909609,53.319 26.7909609,53.319 L23.7089609,75.355 L23.0689609,79.761 C23.0639609,79.787 23.0609609,79.817 23.0569609,79.843 L23.0389609,79.97 L23.0409609,79.97 C22.7678775,82.0882686 23.4195627,84.2216125 24.8297325,85.8256878 C26.2399023,87.4297631 28.2721622,88.3494204 30.4079609,88.35 C32.5413775,88.3498457 34.5717341,87.4323894 35.981767,85.8313667 C37.3917999,84.230344 38.0453665,82.1003381 37.7759609,79.984 L42.5099609,58.403 L54.0669609,57.017 L52.2779609,62.897 L62.1759609,64.816 C63.7999805,65.1359019 64.8609725,66.7070634 64.5509609,68.333 L57.1389609,106.576 C56.8614173,107.985312 55.6273375,109.002548 54.1909609,109.006 C54.1189609,109.006 54.0449609,108.99 53.9709609,108.985 C53.2429609,109.089 52.6799609,108.95 52.6799609,108.95 L43.2799609,107.101 L40.1979609,124.206 L16.6379609,144.569 C14.4724288,146.277936 13.4319738,149.045985 13.9356703,151.758232 C14.4393669,154.470478 16.404289,156.680393 19.0390054,157.497866 C21.6737218,158.315339 24.5444664,157.605785 26.4949609,155.655 C26.4949609,155.655 54.2199609,133.605 56.0699609,132.064 C57.9199609,130.524 58.8429609,128.211 58.8429609,128.211 C58.8429609,128.211 63.3839609,114.263 64.6219609,111.337 C65.4699609,109.333 69.5539609,110.258 69.5539609,110.258 L92.4389609,118.889 L100.053961,147.951 C100.135961,148.581 100.295961,149.185 100.526961,149.755 L100.528961,149.755 C101.983101,153.363422 105.975093,155.238541 109.680699,154.053755 C113.386305,152.86897 115.549973,149.025714 114.640961,145.243 C113.798961,140.278 110.036961,118.197 109.079961,113.417 C108.001961,108.023 104.458961,106.483 104.458961,106.483 C104.458961,106.483 83.1919609,94.928 81.8059609,94.156 C80.4189609,93.386 80.7279609,91.382 80.7279609,91.382 L84.6579609,77.051 L87.4309609,82.907 C87.4309609,82.907 89.0499609,86.181 91.5149609,86.298 L124.871961,87.118 C128.842422,87.1029226 132.099408,83.9688325 132.267115,80.0018862 C132.434823,76.03494 129.453982,72.6371376 125.498961,72.287 Z" id="Shape" fill="#3A3A3A"></path>
                            <path d="M53.9699609,108.985 L53.9719609,108.985 C54.0449609,108.991 54.1189609,109.006 54.1919609,109.006 C55.5989609,109.006 56.8629609,108.006 57.1399609,106.576 L64.5519609,68.333 C64.8619725,66.7070634 63.8009805,65.1359019 62.1769609,64.816 L41.9629609,60.899 L40.6769609,66.761 L58.0899609,70.135 L51.8189609,102.489 L6.51496088,93.71 L12.7849609,61.357 L25.3269609,63.788 L26.1589609,57.838 L10.9809609,54.896 C9.35593093,54.5877121 7.78632872,55.6475061 7.46496088,57.27 L0.0539608792,95.514 C-0.256594286,97.1398283 0.804754447,98.7110713 2.42896088,99.03 L53.6249609,108.953 C53.7389609,108.975 53.8539609,108.976 53.9699609,108.985 Z" id="Shape" fill="#F0C42E"></path>
                            <path d="M59.0409609,9.228 C59.0354575,10.3286623 58.1416369,11.2180138 57.0409609,11.218 L19.0139609,11.218 C17.9139609,11.218 17.0139609,10.322 17.0139609,9.228 C17.0139609,8.134 17.9139609,7.238 19.0139609,7.238 L57.0409609,7.238 C58.1409609,7.239 59.0409609,8.134 59.0409609,9.228 L59.0409609,9.228 Z M57.0029609,19.226 C57.0029609,20.32 56.1029609,21.216 55.0029609,21.216 L32.0429609,21.216 C30.9429609,21.216 30.0429609,20.32 30.0429609,19.226 C30.0484643,18.1253377 30.9422849,17.2359862 32.0429609,17.236 L55.0019609,17.236 C56.1029609,17.236 57.0029609,18.132 57.0029609,19.226 L57.0029609,19.226 Z" id="Shape" fill="#F0C52E"></path>
                        </g>
                    </g>
                </g>
            </g>
        </g>
    </g>
</svg>