<?xml version="1.0" encoding="UTF-8"?>
<svg width="27px" height="35px" viewBox="0 0 27 35" version="1.1" xmlns="http://www.w3.org/2000/svg" xmlns:xlink="http://www.w3.org/1999/xlink">
    <!-- Generator: Sketch 54.1 (76490) - https://sketchapp.com -->
    <title>logo-html</title>
    <desc>Created with Sketch.</desc>
    <g id="Pages" stroke="none" stroke-width="1" fill="none" fill-rule="evenodd">
        <g id="Index" transform="translate(-1273.000000, -2694.000000)" fill="#FFC600">
            <g id="footer" transform="translate(0.000000, 2472.000000)">
                <g id="logo-html" transform="translate(1273.000000, 222.000000)">
                    <g id="Shape">
                        <path d="M13.62,0.017 L13.472,0 L0,1.412 L0,26.073 L13.473,34.09 L26.903,26.1 L26.945,26.075 L26.945,1.412 L13.62,0.017 Z M25.019,12.127 L13.495,5.334 L13.494,5.23 L13.407,5.28 L13.319,5.224 L13.319,5.333 L1.925,12.118 L1.925,3.147 L13.473,1.935 L25.02,3.147 L25.02,12.127 L25.019,12.127 Z M13.405,6.787 L24.923,13.5 L20.444,16.14 L13.351,11.919 L13.337,13.334 L19.241,16.847 L18.381,17.354 L13.351,14.362 L13.337,15.777 L17.164,18.052 L16.382,18.575 L13.351,16.788 L13.337,18.201 L15.19,19.292 L13.39,20.373 L2.034,13.622 L13.405,6.787 Z M1.925,15.127 L13.336,21.918 L13.352,22.962 L5.41,18.234 L5.395,19.65 L13.374,24.445 L13.392,25.521 L5.419,20.781 L5.406,22.195 L13.427,27.017 L13.473,27.042 L21.616,22.17 L21.605,16.993 L25.02,14.957 L25.02,24.978 L13.472,31.85 L1.925,24.979 L1.925,15.127 Z" fill-rule="nonzero"></path>
                    </g>
                </g>
            </g>
        </g>
    </g>
</svg>