<?xml version="1.0" encoding="UTF-8"?>
<svg width="164px" height="36px" viewBox="0 0 164 36" version="1.1" xmlns="http://www.w3.org/2000/svg" xmlns:xlink="http://www.w3.org/1999/xlink">
    <!-- Generator: Sketch 54.1 (76490) - https://sketchapp.com -->
    <title>logo-yellow</title>
    <desc>Created with Sketch.</desc>
    <g id="Pages" stroke="none" stroke-width="1" fill="none" fill-rule="evenodd">
        <g id="Index" transform="translate(-140.000000, -2531.000000)" fill="#FFC600">
            <g id="footer" transform="translate(0.000000, 2472.000000)">
                <g id="logo-yellow" transform="translate(140.000000, 59.000000)">
                    <path d="M14.32,1.4 C18.9600232,1.4 22.8399844,3.00798392 25.96,6.224 C29.0800156,9.44001608 30.64,13.4319762 30.64,18.2 C30.64,22.9680238 29.0800156,26.9599839 25.96,30.176 C22.8399844,33.3920161 18.9600232,35 14.32,35 L0.88,35 L0.88,1.4 L14.32,1.4 Z M14.32,27.608 C16.9760133,27.608 19.1279918,26.7520086 20.776,25.04 C22.4240082,23.3279914 23.248,21.0480142 23.248,18.2 C23.248,15.3519858 22.4240082,13.0720086 20.776,11.36 C19.1279918,9.64799144 16.9760133,8.792 14.32,8.792 L8.56,8.792 L8.56,27.608 L14.32,27.608 Z M43.12,27.608 L56.56,27.608 L56.56,35 L35.44,35 L35.44,1.4 L56.32,1.4 L56.32,8.792 L43.12,8.792 L43.12,14.36 L55.12,14.36 L55.12,21.656 L43.12,21.656 L43.12,27.608 Z M69.424,35 L58.48,1.4 L66.88,1.4 L74.32,26.12 L81.76,1.4 L90.16,1.4 L79.216,35 L69.424,35 Z M93.52,1.4 L101.2,1.4 L101.2,35 L93.52,35 L93.52,1.4 Z M123.472,35.672 C118.447975,35.672 114.280017,34.0000167 110.968,30.656 C107.655983,27.3119833 106,23.1600248 106,18.2 C106,13.2399752 107.655983,9.08801672 110.968,5.744 C114.280017,2.39998328 118.447975,0.728 123.472,0.728 C126.480015,0.728 129.263987,1.42399304 131.824,2.816 C134.384013,4.20800696 136.399993,6.103988 137.872,8.504 L131.248,12.344 C130.511996,11.0319934 129.456007,10.0160036 128.08,9.296 C126.703993,8.5759964 125.168008,8.216 123.472,8.216 C120.495985,8.216 118.120009,9.12799088 116.344,10.952 C114.567991,12.7760091 113.68,15.191985 113.68,18.2 C113.68,21.208015 114.567991,23.6239909 116.344,25.448 C118.120009,27.2720091 120.495985,28.184 123.472,28.184 C125.168008,28.184 126.711993,27.8160037 128.104,27.08 C129.496007,26.3439963 130.543996,25.3360064 131.248,24.056 L137.872,27.896 C136.431993,30.296012 134.432013,32.191993 131.872,33.584 C129.311987,34.976007 126.512015,35.672 123.472,35.672 Z M149.632,27.608 L163.072,27.608 L163.072,35 L141.952,35 L141.952,1.4 L162.832,1.4 L162.832,8.792 L149.632,8.792 L149.632,14.36 L161.632,14.36 L161.632,21.656 L149.632,21.656 L149.632,27.608 Z" id="logo"></path>
                </g>
            </g>
        </g>
    </g>
</svg>