<?xml version="1.0" encoding="UTF-8"?>
<svg width="55px" height="55px" viewBox="0 0 55 55" version="1.1" xmlns="http://www.w3.org/2000/svg" xmlns:xlink="http://www.w3.org/1999/xlink">
    <!-- Generator: Sketch 55.1 (78136) - https://sketchapp.com -->
    <title>modal-close</title>
    <desc>Created with Sketch.</desc>
    <g id="Styleguide" stroke="none" stroke-width="1" fill="none" fill-rule="evenodd">
        <g transform="translate(-1132.000000, -2481.000000)" fill="#F0C52E" fill-rule="nonzero" id="кнопка-закрытия">
            <g transform="translate(1132.000000, 2397.000000)">
                <g id="modal-close" transform="translate(0.000000, 84.000000)">
                    <path d="M27.5,0 C12.312,0 0,12.312 0,27.5 C0,42.688 12.312,55 27.5,55 C42.688,55 55,42.688 55,27.5 C55,12.312 42.688,0 27.5,0 Z M38.976,37.072 L37.49,38.498 L27.5,28.924 L17.513,38.498 L16.025,37.072 L26.013,27.499 L16.026,17.926 L17.513,16.501 L27.5,26.074 L37.488,16.501 L38.975,17.926 L28.986,27.5 L38.976,37.072 Z" id="Shape"></path>
                </g>
            </g>
        </g>
    </g>
</svg>