<?xml version="1.0" encoding="UTF-8"?>
<svg width="87px" height="117px" viewBox="0 0 87 117" version="1.1" xmlns="http://www.w3.org/2000/svg" xmlns:xlink="http://www.w3.org/1999/xlink">
    <!-- Generator: Sketch 54.1 (76490) - https://sketchapp.com -->
    <title>popular-2</title>
    <desc>Created with Sketch.</desc>
    <g id="Pages" stroke="none" stroke-width="1" fill="none" fill-rule="evenodd">
        <g id="Index" transform="translate(-378.000000, -861.000000)" fill="#363636" fill-rule="nonzero">
            <g id="popular" transform="translate(140.000000, 820.000000)">
                <g id="popular-2" transform="translate(238.000000, 41.000000)">
                    <path d="M82.821,4.011 L3.33,4.011 C1.56931622,4.011 0.142,5.43831622 0.142,7.199 L0.142,53.612 C0.141469199,54.4577647 0.477144405,55.2690562 1.0750967,55.8671961 C1.673049,56.4653359 2.48423516,56.8012655 3.33,56.801 L82.822,56.801 C83.6678567,56.8012654 84.4791455,56.4653676 85.0772566,55.8672566 C85.6753676,55.2691455 86.0112654,54.4578567 86.011,53.612 L86.011,7.199 C86.0107348,6.3532246 85.6744975,5.54219531 85.0762565,4.94432932 C84.4780154,4.34646334 83.6667754,4.01073474 82.821,4.011 L82.821,4.011 Z M8.392,37.236 L8.166,37.236 C6.40499261,37.235448 4.97755195,35.8080074 4.977,34.047 L4.977,26.764 C4.97699996,25.9183165 5.31301483,25.1072847 5.91109711,24.50939 C6.50917938,23.9114952 7.32031658,23.5757347 8.166,23.576 L8.392,23.5759998 L8.392,37.236 L8.392,37.236 Z M69.623,52.408 L13.341,52.408 L13.341,8.402 L69.623,8.402 L69.623,52.408 L69.623,52.408 Z M78.4,34.552 C76.111,34.552 74.254,32.697 74.254,30.405 C74.254,28.113 76.11,26.258 78.4,26.258 C80.6903249,26.258 82.547,28.1146751 82.547,30.405 C82.547,32.6953249 80.6903249,34.552 78.4,34.552 L78.4,34.552 Z M31.497,0 L54.654,0 L54.654,2.758 L31.497,2.758 L31.497,0 Z M46.608,64.861 L46.608,61.888 L54.654,61.888 L54.654,59.13 L31.498,59.13 L31.498,61.888 L39.543,61.888 L39.543,97.134 C37.3347309,98.1005112 35.9079519,100.282482 35.908,102.693 L35.908,117 L50.243,117 L50.243,102.693 C50.2436398,100.282506 48.8160464,98.1006749 46.607,97.136 L46.607,69.146 L51.403,69.146 L56.454,70.359 L56.454,63.648 L51.403,64.861 L46.608,64.861 L46.608,64.861 Z" id="Shape"></path>
                </g>
            </g>
        </g>
    </g>
</svg>