<?xml version="1.0" encoding="UTF-8"?>
<svg width="97px" height="55px" viewBox="0 0 97 55" version="1.1" xmlns="http://www.w3.org/2000/svg" xmlns:xlink="http://www.w3.org/1999/xlink">
    <!-- Generator: Sketch 54.1 (76490) - https://sketchapp.com -->
    <title>popular-1</title>
    <desc>Created with Sketch.</desc>
    <g id="Pages" stroke="none" stroke-width="1" fill="none" fill-rule="evenodd">
        <g id="Index" transform="translate(-171.000000, -872.000000)" fill="#363636" fill-rule="nonzero">
            <g id="popular" transform="translate(140.000000, 820.000000)">
                <g id="popular-1" transform="translate(31.000000, 52.000000)">
                    <path d="M84.131,32.639 L84.131,20.003 C84.131,18.694 85.176,17.633 86.466,17.633 L94.792,19.214 L94.792,11.02 C94.792,8.665 93.084,7.589 90.59,6.755 L67.403,0.175 C69.019,1.566 69.292,2.215 69.292,4.571 L69.292,49.78 C69.292,52.136 68.842,53.846 67.325,54.99 L90.59,47.925 C92.991,47.092 94.792,43.709 94.792,41.353 L94.792,33.44 L86.466,35.007 C85.176,35.009 84.131,33.947 84.131,32.639 L84.131,32.639 Z" id="Shape"></path>
                    <path d="M95.129,20.979 L87.531,19.535 C86.523,19.535 85.707,20.364 85.707,21.386 L85.707,31.254 C85.707,32.277 86.523,33.106 87.531,33.106 L95.129,31.675 C96.283,31.256 96.953,30.846 96.953,29.823 L96.953,22.83 C96.953,21.808 96.187,21.323 95.129,20.979 Z M67.17,4.483 C67.17,-0.597 62.938,0.024 62.938,0.024 C62.938,0.024 5.832,4.738 2.838,5.145 C-0.156,5.552 0.001,9.532 0.001,9.532 L-4.4408921e-16,45.812 C-4.4408921e-16,49.555 2.599,49.565 2.599,49.565 L19.076,50.968 L27.212,39.3 C27.212,39.3 28.321,37.472 29.717,37.472 C31.114,37.472 32.149,39.333 32.149,39.333 L41.21,52.854 C41.21,52.854 60.105,54.763 63.731,54.763 C67.357,54.762 67.17,49.739 67.17,49.739 L67.17,4.483 Z M12.982,37.192 C9.284,37.192 6.286,32.591 6.286,26.917 C6.286,21.243 9.284,16.642 12.982,16.642 C16.68,16.642 19.678,21.243 19.678,26.917 C19.678,32.591 16.68,37.192 12.982,37.192 Z M49.14,38.618 C44.478,38.618 40.699,33.379 40.699,26.917 C40.699,20.454 44.479,15.215 49.14,15.215 C53.802,15.215 57.582,20.454 57.582,26.917 C57.582,33.379 53.802,38.618 49.14,38.618 Z" id="Shape"></path>
                </g>
            </g>
        </g>
    </g>
</svg>