<?xml version="1.0" encoding="UTF-8"?>
<svg width="57px" height="98px" viewBox="0 0 57 98" version="1.1" xmlns="http://www.w3.org/2000/svg" xmlns:xlink="http://www.w3.org/1999/xlink">
    <!-- Generator: Sketch 54.1 (76490) - https://sketchapp.com -->
    <title>popular-5</title>
    <desc>Created with Sketch.</desc>
    <g id="Pages" stroke="none" stroke-width="1" fill="none" fill-rule="evenodd">
        <g id="Index" transform="translate(-995.000000, -852.000000)" fill="#363636" fill-rule="nonzero">
            <g id="popular" transform="translate(140.000000, 820.000000)">
                <g id="popular-5" transform="translate(855.000000, 32.000000)">
                    <path d="M54.494,32.197 L52.979,32.197 L52.979,27.557 C52.979,22.505 48.892,18.371 43.897,18.371 L9.082,18.371 C4.086,18.372 0,22.505 0,27.557 L0,70.425 C0,75.477 4.087,79.61 9.083,79.61 L43.898,79.61 C48.893,79.61 52.98,75.477 52.98,70.425 L52.98,67.01 L54.495,67.01 C54.9142093,67.0061589 55.2520176,66.6652269 55.252,66.246 L55.252,52.467 C55.2525717,52.0472171 54.9147603,51.7053895 54.495,51.701 L52.98,51.701 L52.98,42.913 L54.495,42.913 C55.327,42.913 56.009,42.225 56.009,41.382 L56.009,33.728 C56.0101337,32.8882144 55.3337511,32.2046886 54.494,32.197 Z M34.082,29.088 C37.008,29.088 39.381,31.486 39.381,34.446 C39.381,37.406 37.008,39.804 34.082,39.804 C31.156,39.804 28.784,37.406 28.784,34.446 C28.784,31.486 31.156,29.088 34.082,29.088 L34.082,29.088 Z M18.945,29.088 C21.87,29.088 24.243,31.486 24.243,34.446 C24.243,37.406 21.87,39.804 18.945,39.804 C16.019,39.804 13.647,37.406 13.647,34.446 C13.647,31.486 16.019,29.088 18.945,29.088 L18.945,29.088 Z M5.297,49.397 C5.297,46.438 7.668,44.039 10.595,44.039 C13.521,44.039 15.893,46.438 15.893,49.397 C15.893,52.356 13.52,54.755 10.595,54.755 C7.668,54.756 5.297,52.356 5.297,49.397 Z M18.945,68.894 C16.019,68.894 13.647,66.496 13.647,63.536 C13.647,60.576 16.019,58.178 18.945,58.178 C21.87,58.178 24.243,60.576 24.243,63.536 C24.243,66.496 21.87,68.894 18.945,68.894 Z M20.435,48.991 C20.435,45.609 23.146,42.867 26.49,42.867 C29.834,42.867 32.545,45.609 32.545,48.991 C32.545,52.373 29.834,55.115 26.49,55.115 C23.146,55.114 20.435,52.373 20.435,48.991 L20.435,48.991 Z M34.082,68.894 C31.156,68.894 28.784,66.496 28.784,63.536 C28.784,60.576 31.156,58.178 34.082,58.178 C37.008,58.178 39.381,60.576 39.381,63.536 C39.381,66.496 37.008,68.894 34.082,68.894 Z M42.384,54.756 C39.457,54.756 37.086,52.357 37.086,49.398 C37.086,46.439 39.457,44.04 42.384,44.04 C45.31,44.04 47.682,46.439 47.682,49.398 C47.682,52.356 45.31,54.756 42.384,54.756 Z M9.646,15.31 L43.333,15.31 C44.176,15.31 44.765,14.629 44.639,13.796 L43.023,3.028 L43.021,3.026 C42.771,1.362 41.189,0 39.506,0 L13.474,0 C11.788,0 10.206,1.362 9.957,3.028 L8.342,13.795 C8.217,14.628 8.803,15.31 9.646,15.31 Z M43.333,82.671 L9.646,82.671 C8.803,82.671 8.217,83.354 8.342,84.187 L9.957,94.954 C10.207,96.62 11.789,97.982 13.473,97.982 L39.505,97.982 C41.189,97.982 42.771,96.62 43.022,94.956 L43.022,94.954 L44.637,84.187 C44.765,83.354 44.176,82.671 43.333,82.671 L43.333,82.671 Z" id="Shape"></path>
                </g>
            </g>
        </g>
    </g>
</svg>