<?xml version="1.0" encoding="UTF-8"?>
<svg width="72px" height="87px" viewBox="0 0 72 87" version="1.1" xmlns="http://www.w3.org/2000/svg" xmlns:xlink="http://www.w3.org/1999/xlink">
    <!-- Generator: Sketch 54.1 (76490) - https://sketchapp.com -->
    <title>popular-3</title>
    <desc>Created with Sketch.</desc>
    <g id="Pages" stroke="none" stroke-width="1" fill="none" fill-rule="evenodd">
        <g id="Index" transform="translate(-589.000000, -858.000000)" fill="#363636" fill-rule="nonzero">
            <g id="popular" transform="translate(140.000000, 820.000000)">
                <g id="popular-3" transform="translate(449.000000, 38.000000)">
                    <path d="M53.349,1.49 C53.349,0.754 52.771,0 52.038,0 L9.053,0 C8.32,0 7.672,0.754 7.672,1.49 L7.672,5.012 L53.348,5.012 L53.348,1.49 L53.349,1.49 Z M54.202,81.809 L44.605,81.809 L44.605,71.426 L37.647,71.426 L37.647,73.933 L18.774,73.933 C18.237,72.679 17.017,71.785 15.593,71.785 L3.559,71.785 C1.642,71.784 0,73.387 0,75.311 L0,78.329 C0,80.253 1.642,81.809 3.559,81.809 L15.594,81.809 C17.105,81.809 18.386,80.913 18.863,79.483 L37.648,79.483 L37.648,81.809 L28.13,81.809 C27.597,81.809 27.12,82.246 27.12,82.781 L27.12,85.953 C27.12,86.488 27.598,87.001 28.13,87.001 L54.202,87.001 C54.735,87.001 55.132,86.488 55.132,85.953 L55.132,82.78 C55.132,82.245 54.735,81.809 54.202,81.809 Z M60.666,12.39 C59.7825842,9.38863029 57.0236677,7.33095367 53.895,7.34 L7.148,7.34 C3.25,7.34 0,10.449 0,14.361 L0,61.261 C0,65.173 3.25,68.382 7.148,68.382 L53.895,68.382 C57.793,68.382 61.021,65.173 61.021,61.261 L61.021,50.915 C67.3050846,46.5619062 71.0449653,39.3955155 71.022,31.751 C71.021,23.672 66.89,16.57 60.666,12.39 Z M12.238,62.151 C8.979,62.151 6.337,59.501 6.337,56.23 C6.337,52.96 8.979,50.308 12.238,50.308 C15.497,50.308 18.14,52.96 18.14,56.23 C18.14,59.501 15.497,62.151 12.238,62.151 Z M18.199,29.546 C18.1995308,29.9226075 18.0504329,30.284001 17.7845063,30.5506778 C17.5185796,30.8173546 17.1576075,30.9674699 16.781,30.968 L7.841,30.968 C7.46439247,30.9674699 7.10342041,30.8173546 6.83749374,30.5506778 C6.57156708,30.284001 6.42246919,29.9226075 6.423,29.546 L6.423,15.386 C6.42220361,15.0092194 6.57118418,14.6475689 6.83713961,14.3806757 C7.10309504,14.1137825 7.4642189,13.9635298 7.841,13.963 L16.78,13.963 C17.1567811,13.9635298 17.517905,14.1137825 17.7838604,14.3806757 C18.0498158,14.6475689 18.1987964,15.0092194 18.198,15.386 L18.198,29.546 L18.199,29.546 Z M47.762,51.858 C36.686,51.858 27.705,42.848 27.705,31.735 C27.705,20.622 36.685,11.611 47.762,11.611 C58.839,11.611 67.82,20.621 67.82,31.735 C67.82,42.849 58.839,51.858 47.762,51.858 Z" id="Shape"></path>
                    <ellipse id="Oval" cx="47.762" cy="31.735" rx="12.188" ry="12.229"></ellipse>
                    <circle id="Oval" cx="31.562" cy="31.736" r="1.435"></circle>
                    <circle id="Oval" cx="63.963" cy="31.736" r="1.435"></circle>
                    <circle id="Oval" cx="39.109" cy="17.994" r="1.435"></circle>
                    <ellipse id="Oval" cx="56.415" cy="45.476" rx="1.43" ry="1.436"></ellipse>
                    <circle id="Oval" cx="55.697" cy="17.565" r="1.435"></circle>
                    <circle id="Oval" cx="39.828" cy="45.906" r="1.435"></circle>
                </g>
            </g>
        </g>
    </g>
</svg>