<?xml version="1.0" encoding="UTF-8"?>
<svg width="132px" height="69px" viewBox="0 0 132 69" version="1.1" xmlns="http://www.w3.org/2000/svg" xmlns:xlink="http://www.w3.org/1999/xlink">
    <!-- Generator: Sketch 54.1 (76490) - https://sketchapp.com -->
    <title>poppular-6</title>
    <desc>Created with Sketch.</desc>
    <g id="Pages" stroke="none" stroke-width="1" fill="none" fill-rule="evenodd">
        <g id="Index" transform="translate(-1153.000000, -869.000000)" fill="#363636" fill-rule="nonzero">
            <g id="popular" transform="translate(140.000000, 820.000000)">
                <g id="poppular-6" transform="translate(1013.000000, 49.000000)">
                    <path d="M12.052,0.258 C6.507,0.745 1.838,1.85 0.575,2.93 C-0.147,3.546 -0.147,3.546 0.343,4.086 C0.987,4.806 4.056,5.731 7.59,6.323 C11.588,6.991 20.1,7.016 21.314,6.374 C22.525,5.706 22.938,4.96 22.938,3.393 C22.938,1.774 22.318,0.977 20.72,0.54 C19.274,0.154 14.94,-3.16413562e-15 12.052,0.258 Z M25.774,0.488 C25.645,0.771 25.516,2.596 25.516,4.6 C25.516,8.661 25.671,8.378 23.324,8.533 L22.294,8.61 L22.164,11.155 L22.035,13.699 L20.849,13.982 C18.269,14.65 16.849,16.577 17.057,19.276 C17.185,21.203 18.087,22.617 19.636,23.363 C20.745,23.876 21.106,23.901 30.882,23.901 C36.427,23.901 41.019,23.98 41.07,24.081 C41.121,24.211 39.96,33.489 38.49,44.721 C37.046,55.951 35.808,65.718 35.782,66.387 C35.731,68.004 36.608,69.007 38.13,69.007 C39.367,69.007 40.142,68.367 40.451,67.107 C40.581,66.593 41.947,56.773 43.469,45.285 C44.991,33.822 46.332,24.416 46.409,24.416 C46.513,24.416 47.493,25.829 48.602,27.552 C51.542,32.178 51.001,31.869 56.237,31.869 L60.596,31.869 L60.596,37.499 L55.463,37.576 C50.743,37.653 50.253,37.703 49.582,38.191 C48.009,39.348 47.957,39.606 47.957,49.168 C47.957,58.702 47.983,58.96 49.479,60.218 L50.33,60.913 L81.695,60.913 L82.546,60.217 C84.042,58.96 84.066,58.702 84.066,49.167 C84.066,39.607 84.016,39.348 82.444,38.191 C81.773,37.703 81.283,37.653 76.562,37.576 L71.43,37.499 L71.43,31.869 L75.79,31.869 C81.024,31.869 80.483,32.178 83.423,27.552 C84.533,25.829 85.513,24.416 85.617,24.416 C85.693,24.416 87.035,33.822 88.557,45.285 C90.079,56.773 91.446,66.593 91.575,67.106 C91.885,68.366 92.657,69.008 93.896,69.008 C95.417,69.008 96.296,68.004 96.243,66.387 C96.217,65.717 94.979,55.951 93.533,44.721 C92.065,33.489 90.903,24.211 90.956,24.081 C91.006,23.98 95.597,23.901 101.146,23.901 C110.92,23.901 111.281,23.876 112.389,23.363 C113.937,22.617 114.839,21.203 114.969,19.276 C115.175,16.577 113.757,14.65 111.177,13.982 L109.99,13.699 L109.863,11.155 L109.733,8.61 L108.702,8.533 C106.355,8.378 106.508,8.661 106.508,4.6 C106.508,2.596 106.38,0.771 106.251,0.488 C106.045,0.128 105.708,0 104.884,0 C104.265,0 103.646,0.128 103.464,0.309 C103.258,0.514 103.154,1.774 103.154,4.241 C103.154,6.708 103.052,7.968 102.845,8.173 C102.665,8.353 101.944,8.481 101.195,8.481 C99.57,8.481 99.545,8.533 99.545,11.591 L99.545,13.878 L32.48,13.878 L32.48,11.591 C32.48,8.533 32.456,8.481 30.83,8.481 C30.082,8.481 29.36,8.352 29.18,8.173 C28.973,7.968 28.87,6.708 28.87,4.241 C28.87,1.774 28.767,0.514 28.56,0.309 C28.38,0.129 27.76,1.94289029e-15 27.142,1.94289029e-15 C26.317,1.94289029e-15 25.982,0.128 25.774,0.488 Z M68.617,40.608 C71.506,41.507 74.009,44.001 74.783,46.776 C75.222,48.319 75.093,50.992 74.499,52.56 C73.803,54.435 71.814,56.57 69.934,57.495 C68.644,58.137 68.18,58.214 66.013,58.214 C63.846,58.214 63.382,58.137 62.093,57.495 C60.208,56.569 58.223,54.435 57.526,52.56 C56.934,50.992 56.804,48.32 57.243,46.776 C57.991,44.053 60.493,41.506 63.304,40.608 C65.316,39.966 66.604,39.966 68.617,40.608 L68.617,40.608 Z" id="Shape"></path>
                    <path d="M63.794,44.438 C61.757,45.363 60.287,48.087 60.725,50.168 C61.499,53.845 65.548,55.721 68.721,53.87 C70.706,52.712 71.711,50.323 71.171,48.087 C70.603,45.697 68.437,43.949 66.013,43.949 C65.367,43.949 64.387,44.181 63.793,44.438 L63.794,44.438 Z M36.092,0.154 C32.172,0.822 31.579,1.285 31.579,3.598 C31.579,5.423 32.042,6.014 33.847,6.554 C35.397,7.016 41.019,7.068 44.347,6.682 C51.207,5.86 55.668,4.138 54.045,2.93 C52.78,2.03 49.143,1.054 44.991,0.54 C42.516,0.232 36.995,9.08995101e-16 36.091,0.154 L36.092,0.154 Z M89.484,0.258 C83.165,0.848 77.62,2.339 77.62,3.444 C77.62,5.166 85.46,6.914 93.25,6.939 C99.054,6.939 100.446,6.297 100.446,3.599 C100.446,1.774 99.827,0.977 98.073,0.514 C96.423,0.103 92.398,7.63278329e-17 89.484,0.258 Z M112.776,0.283 C110.996,0.514 109.758,1.053 109.346,1.774 C108.959,2.544 109.036,4.678 109.5,5.346 C110.428,6.656 111.152,6.811 116.568,6.811 C120.229,6.811 122.37,6.682 124.435,6.323 C127.969,5.731 131.038,4.806 131.683,4.086 C132.173,3.546 132.173,3.546 131.45,2.93 C130.11,1.8 125.492,0.745 119.534,0.258 C116.053,-0.025 115.046,-0.025 112.776,0.283 Z" id="Shape"></path>
                </g>
            </g>
        </g>
    </g>
</svg>