<?xml version="1.0" encoding="UTF-8"?>
<svg width="108px" height="66px" viewBox="0 0 108 66" version="1.1" xmlns="http://www.w3.org/2000/svg" xmlns:xlink="http://www.w3.org/1999/xlink">
    <!-- Generator: Sketch 54.1 (76490) - https://sketchapp.com -->
    <title>popular-4</title>
    <desc>Created with Sketch.</desc>
    <g id="Pages" stroke="none" stroke-width="1" fill="none" fill-rule="evenodd">
        <g id="Index" transform="translate(-768.000000, -869.000000)" fill="#363636" fill-rule="nonzero">
            <g id="popular" transform="translate(140.000000, 820.000000)">
                <g id="popular-4" transform="translate(628.000000, 49.000000)">
                    <path d="M98.967,5.074 C99.719,6.515 100.176,8.154 100.176,9.892 L100.176,30.994 C100.176,35.61 97.084,39.521 92.93,40.894 C91.605,44.881 89.152,48.748 84.879,51.326 C76.203,56.557 53.755,56.163 53.681,56.163 C53.603,56.163 31.168,56.558 22.492,51.326 C18.276,48.781 15.784,44.979 14.45,41.047 C10.032,39.838 6.694,35.796 6.694,30.994 L6.694,9.893 C6.694,8.205 7.121,6.611 7.833,5.2 C4.17,6.109 0,7.918 0,11.434 C0,17.677 0,37.121 0,41.417 C0,51.668 11.839,65.85 53.657,65.85 C95.477,65.85 107.314,51.668 107.314,41.417 C107.314,37.121 107.314,17.677 107.314,11.434 C107.313,7.75 102.738,5.94 98.967,5.074 Z" id="Shape"></path>
                    <path d="M20.561,39.459 L86.084,39.459 C91.648,39.459 96.158,34.946 96.158,29.382 L96.158,10.935 C96.158,5.372 91.648,0.86 86.084,0.86 L20.561,0.86 C14.997,0.86 10.486,5.371 10.486,10.935 L10.486,29.382 C10.486,34.946 14.997,39.459 20.561,39.459 Z M83.695,10.468 C84.562,10.468 85.264,11.171 85.264,12.038 C85.264,12.904 84.562,13.607 83.695,13.607 C82.828,13.607 82.127,12.904 82.127,12.038 C82.127,11.17 82.828,10.468 83.695,10.468 Z M83.695,14.507 C84.562,14.507 85.264,15.21 85.264,16.075 C85.264,16.942 84.562,17.644 83.695,17.644 C82.828,17.644 82.127,16.942 82.127,16.075 C82.127,15.21 82.828,14.507 83.695,14.507 Z M83.695,18.546 C84.562,18.546 85.264,19.248 85.264,20.115 C85.264,20.981 84.562,21.684 83.695,21.684 C82.828,21.684 82.127,20.981 82.127,20.115 C82.127,19.248 82.828,18.546 83.695,18.546 Z M83.695,22.373 C84.562,22.373 85.264,23.077 85.264,23.942 C85.264,24.809 84.562,25.51 83.695,25.51 C82.828,25.51 82.127,24.809 82.127,23.942 C82.127,23.076 82.828,22.373 83.695,22.373 Z M83.695,26.412 C84.562,26.412 85.264,27.114 85.264,27.981 C85.264,28.846 84.562,29.549 83.695,29.549 C82.828,29.549 82.127,28.845 82.127,27.981 C82.127,27.114 82.828,26.412 83.695,26.412 Z M79.656,10.468 C80.523,10.468 81.224,11.171 81.224,12.038 C81.224,12.904 80.523,13.607 79.656,13.607 C78.791,13.607 78.088,12.904 78.088,12.038 C78.088,11.17 78.791,10.468 79.656,10.468 Z M79.656,26.412 C80.523,26.412 81.224,27.114 81.224,27.981 C81.224,28.846 80.523,29.549 79.656,29.549 C78.791,29.549 78.088,28.845 78.088,27.981 C78.088,27.114 78.791,26.412 79.656,26.412 Z M75.619,10.468 C76.484,10.468 77.187,11.171 77.187,12.038 C77.187,12.904 76.484,13.607 75.619,13.607 C74.752,13.607 74.05,12.904 74.05,12.038 C74.05,11.17 74.752,10.468 75.619,10.468 Z M75.619,14.507 C76.484,14.507 77.187,15.21 77.187,16.075 C77.187,16.942 76.484,17.644 75.619,17.644 C74.752,17.644 74.05,16.942 74.05,16.075 C74.05,15.21 74.752,14.507 75.619,14.507 Z M75.619,18.546 C76.484,18.546 77.187,19.248 77.187,20.115 C77.187,20.981 76.484,21.684 75.619,21.684 C74.752,21.684 74.05,20.981 74.05,20.115 C74.05,19.248 74.752,18.546 75.619,18.546 Z M75.619,22.373 C76.484,22.373 77.187,23.077 77.187,23.942 C77.187,24.809 76.484,25.51 75.619,25.51 C74.752,25.51 74.05,24.809 74.05,23.942 C74.05,23.076 74.752,22.373 75.619,22.373 Z M75.619,26.412 C76.484,26.412 77.187,27.114 77.187,27.981 C77.187,28.846 76.484,29.549 75.619,29.549 C74.752,29.549 74.05,28.845 74.05,27.981 C74.05,27.114 74.752,26.412 75.619,26.412 Z M67.965,10.468 C68.832,10.468 69.533,11.171 69.533,12.038 C69.533,12.904 68.832,13.607 67.965,13.607 C67.098,13.607 66.397,12.904 66.397,12.038 C66.396,11.17 67.1,10.468 67.965,10.468 Z M67.965,18.546 C68.832,18.546 69.533,19.248 69.533,20.115 C69.533,20.981 68.832,21.684 67.965,21.684 C67.098,21.684 66.397,20.981 66.397,20.115 C66.396,19.248 67.1,18.546 67.965,18.546 Z M67.965,22.427 C68.832,22.427 69.533,23.128 69.533,23.995 C69.533,24.86 68.832,25.564 67.965,25.564 C67.098,25.564 66.397,24.86 66.397,23.995 C66.396,23.128 67.1,22.427 67.965,22.427 Z M67.965,26.412 C68.832,26.412 69.533,27.114 69.533,27.981 C69.533,28.846 68.832,29.549 67.965,29.549 C67.098,29.549 66.397,28.845 66.397,27.981 C66.396,27.114 67.1,26.412 67.965,26.412 Z M63.926,10.468 C64.793,10.468 65.496,11.171 65.496,12.038 C65.496,12.904 64.793,13.607 63.926,13.607 C63.061,13.607 62.357,12.904 62.357,12.038 C62.356,11.17 63.061,10.468 63.926,10.468 Z M63.926,18.546 C64.793,18.546 65.496,19.248 65.496,20.115 C65.496,20.981 64.793,21.684 63.926,21.684 C63.061,21.684 62.357,20.981 62.357,20.115 C62.356,19.248 63.061,18.546 63.926,18.546 Z M63.926,26.412 C64.793,26.412 65.496,27.114 65.496,27.981 C65.496,28.846 64.793,29.549 63.926,29.549 C63.061,29.549 62.357,28.845 62.357,27.981 C62.356,27.114 63.061,26.412 63.926,26.412 Z M59.888,10.468 C60.753,10.468 61.457,11.171 61.457,12.038 C61.457,12.904 60.753,13.607 59.888,13.607 C59.021,13.607 58.32,12.904 58.32,12.038 C58.319,11.17 59.021,10.468 59.888,10.468 Z M59.888,14.507 C60.753,14.507 61.457,15.21 61.457,16.075 C61.457,16.942 60.753,17.644 59.888,17.644 C59.021,17.644 58.32,16.942 58.32,16.075 C58.319,15.21 59.021,14.507 59.888,14.507 Z M59.888,18.546 C60.753,18.546 61.457,19.248 61.457,20.115 C61.457,20.981 60.753,21.684 59.888,21.684 C59.021,21.684 58.32,20.981 58.32,20.115 C58.319,19.248 59.021,18.546 59.888,18.546 Z M59.888,26.412 C60.753,26.412 61.457,27.114 61.457,27.981 C61.457,28.846 60.753,29.549 59.888,29.549 C59.021,29.549 58.32,28.845 58.32,27.981 C58.319,27.114 59.021,26.412 59.888,26.412 Z M51.598,10.468 C52.465,10.468 53.167,11.171 53.167,12.038 C53.167,12.904 52.465,13.607 51.598,13.607 C50.731,13.607 50.03,12.904 50.03,12.038 C50.029,11.17 50.731,10.468 51.598,10.468 Z M51.598,14.507 C52.465,14.507 53.167,15.21 53.167,16.075 C53.167,16.942 52.465,17.644 51.598,17.644 C50.731,17.644 50.03,16.942 50.03,16.075 C50.029,15.21 50.731,14.507 51.598,14.507 Z M51.598,18.546 C52.465,18.546 53.167,19.248 53.167,20.115 C53.167,20.981 52.465,21.684 51.598,21.684 C50.731,21.684 50.03,20.981 50.03,20.115 C50.029,19.248 50.731,18.546 51.598,18.546 Z M51.598,22.427 C52.465,22.427 53.167,23.128 53.167,23.995 C53.167,24.86 52.465,25.564 51.598,25.564 C50.731,25.564 50.03,24.86 50.03,23.995 C50.029,23.128 50.731,22.427 51.598,22.427 Z M51.598,26.412 C52.465,26.412 53.167,27.114 53.167,27.981 C53.167,28.846 52.465,29.549 51.598,29.549 C50.731,29.549 50.03,28.845 50.03,27.981 C50.029,27.114 50.731,26.412 51.598,26.412 Z M47.559,14.507 C48.426,14.507 49.127,15.21 49.127,16.075 C49.127,16.942 48.426,17.644 47.559,17.644 C46.692,17.644 45.99,16.942 45.99,16.075 C45.99,15.21 46.691,14.507 47.559,14.507 Z M39.057,14.295 C39.922,14.295 40.626,14.998 40.626,15.863 C40.626,16.73 39.922,17.432 39.057,17.432 C38.19,17.432 37.486,16.729 37.486,15.863 C37.486,14.998 38.189,14.295 39.057,14.295 Z M39.057,18.333 C39.922,18.333 40.626,19.036 40.626,19.903 C40.626,20.769 39.922,21.473 39.057,21.473 C38.19,21.473 37.486,20.769 37.486,19.903 C37.486,19.036 38.189,18.333 39.057,18.333 Z M35.018,10.255 C35.883,10.255 36.586,10.958 36.586,11.825 C36.586,12.691 35.882,13.393 35.018,13.393 C34.151,13.393 33.449,12.69 33.449,11.825 C33.449,10.958 34.15,10.255 35.018,10.255 Z M35.018,14.295 C35.883,14.295 36.586,14.998 36.586,15.863 C36.586,16.73 35.882,17.432 35.018,17.432 C34.151,17.432 33.449,16.729 33.449,15.863 C33.449,14.998 34.15,14.295 35.018,14.295 Z M35.018,18.333 C35.883,18.333 36.586,19.036 36.586,19.903 C36.586,20.769 35.882,21.473 35.018,21.473 C34.151,21.473 33.449,20.769 33.449,19.903 C33.449,19.036 34.15,18.333 35.018,18.333 Z M35.018,22.373 C35.883,22.373 36.586,23.077 36.586,23.942 C36.586,24.809 35.882,25.51 35.018,25.51 C34.151,25.51 33.449,24.809 33.449,23.942 C33.449,23.076 34.15,22.373 35.018,22.373 Z M30.764,14.295 C31.631,14.295 32.333,14.998 32.333,15.863 C32.333,16.73 31.631,17.432 30.764,17.432 C29.897,17.432 29.196,16.729 29.196,15.863 C29.196,14.998 29.897,14.295 30.764,14.295 Z M30.764,18.333 C31.631,18.333 32.333,19.036 32.333,19.903 C32.333,20.769 31.631,21.473 30.764,21.473 C29.897,21.473 29.196,20.769 29.196,19.903 C29.196,19.036 29.897,18.333 30.764,18.333 Z M30.764,22.373 C31.631,22.373 32.333,23.077 32.333,23.942 C32.333,24.809 31.631,25.51 30.764,25.51 C29.897,25.51 29.196,24.809 29.196,23.942 C29.196,23.076 29.897,22.373 30.764,22.373 Z M30.764,26.412 C31.631,26.412 32.333,27.114 32.333,27.981 C32.333,28.846 31.631,29.549 30.764,29.549 C29.897,29.549 29.196,28.845 29.196,27.981 C29.196,27.114 29.897,26.412 30.764,26.412 Z M26.3,10.255 C27.167,10.255 27.871,10.958 27.871,11.825 C27.871,12.691 27.167,13.393 26.3,13.393 C25.435,13.393 24.731,12.69 24.731,11.825 C24.731,10.958 25.435,10.255 26.3,10.255 Z M26.3,14.295 C27.167,14.295 27.871,14.998 27.871,15.863 C27.871,16.73 27.167,17.432 26.3,17.432 C25.435,17.432 24.731,16.729 24.731,15.863 C24.731,14.998 25.435,14.295 26.3,14.295 Z M26.3,18.333 C27.167,18.333 27.871,19.036 27.871,19.903 C27.871,20.769 27.167,21.473 26.3,21.473 C25.435,21.473 24.731,20.769 24.731,19.903 C24.731,19.036 25.435,18.333 26.3,18.333 Z M26.3,22.373 C27.167,22.373 27.871,23.077 27.871,23.942 C27.871,24.809 27.167,25.51 26.3,25.51 C25.435,25.51 24.731,24.809 24.731,23.942 C24.731,23.076 25.435,22.373 26.3,22.373 Z M22.263,14.295 C23.128,14.295 23.832,14.998 23.832,15.863 C23.832,16.73 23.128,17.432 22.263,17.432 C21.396,17.432 20.694,16.729 20.694,15.863 C20.694,14.998 21.396,14.295 22.263,14.295 Z M22.263,18.333 C23.128,18.333 23.832,19.036 23.832,19.903 C23.832,20.769 23.128,21.473 22.263,21.473 C21.396,21.473 20.694,20.769 20.694,19.903 C20.694,19.036 21.396,18.333 22.263,18.333 Z" id="Shape"></path>
                </g>
            </g>
        </g>
    </g>
</svg>