<?xml version="1.0" encoding="UTF-8"?>
<svg width="12px" height="12px" viewBox="0 0 12 12" version="1.1" xmlns="http://www.w3.org/2000/svg" xmlns:xlink="http://www.w3.org/1999/xlink">
    <!-- Generator: Sketch 55.1 (78136) - https://sketchapp.com -->
    <title>slider-button</title>
    <desc>Created with Sketch.</desc>
    <g id="Pages" stroke="none" stroke-width="1" fill="none" fill-rule="evenodd">
        <g id="Index" transform="translate(-1139.000000, -555.000000)" fill="#000000">
            <g id="slide-1" transform="translate(230.000000, 213.000000)">
                <g id="slider-button" transform="translate(909.000000, 342.000000)">
                    <g id="Shape">
                        <path d="M6,1.04347826 C8.73286957,1.04347826 10.9565217,3.26713043 10.9565217,6 C10.9565217,8.73286957 8.73286957,10.9565217 6,10.9565217 C3.26713043,10.9565217 1.04347826,8.73286957 1.04347826,6 C1.04347826,3.26713043 3.26713043,1.04347826 6,1.04347826 L6,1.04347826 Z M6,0 C2.68643478,0 0,2.68643478 0,6 C0,9.31408696 2.68643478,12 6,12 C9.31408696,12 12,9.31408696 12,6 C12,2.68643478 9.31408696,0 6,0 Z" fill-rule="nonzero"></path>
                        <path d="M6.00000003,4.71886121 C6.70708468,4.71999164 7.28000839,5.29291535 7.28113882,6 C7.28000839,6.70708465 6.70708468,7.28000836 6.00000003,7.28113879 C5.29291539,7.28000836 4.71999168,6.70708465 4.71886124,6 C4.71999168,5.29291535 5.29291539,4.71999164 6.00000003,4.71886121 L6.00000003,4.71886121 Z M6.00000003,3.69230769 C5.17554097,3.69230769 4.41370938,4.13215135 4.00147984,4.84615384 C3.58925031,5.56015633 3.58925031,6.43984367 4.00147984,7.15384616 C4.41370938,7.86784865 5.17554097,8.30769231 6.00000003,8.30769231 C7.27450329,8.30769231 8.30769231,7.27450326 8.30769231,6 C8.30769231,4.72549674 7.27450329,3.69230769 6.00000003,3.69230769 Z" fill-rule="nonzero"></path>
                    </g>
                </g>
            </g>
        </g>
    </g>
</svg>