<?xml version="1.0" encoding="UTF-8"?>
<svg width="32px" height="32px" viewBox="0 0 32 32" version="1.1" xmlns="http://www.w3.org/2000/svg" xmlns:xlink="http://www.w3.org/1999/xlink">
    <!-- Generator: Sketch 54.1 (76490) - https://sketchapp.com -->
    <title>twitter</title>
    <desc>Created with Sketch.</desc>
    <g id="Pages" stroke="none" stroke-width="1" fill="none" fill-rule="evenodd" opacity="0.3">
        <g id="Index" transform="translate(-758.000000, -2696.000000)" fill="#FFFFFF">
            <g id="footer" transform="translate(0.000000, 2472.000000)">
                <g id="twitter" transform="translate(758.000000, 224.000000)">
                    <g id="Shape">
                        <path d="M16,0 C7.164,0 0,7.164 0,16 C0,24.837 7.164,32 16,32 C24.837,32 32,24.837 32,16 C32,7.164 24.837,0 16,0 Z M23.944,12.809 C23.693,19.325 20.481,23.641 12.952,23.511 L12.466,23.511 C12.019,23.511 7.923,23.068 7.122,21.688 C9.601,21.878 11.369,21.282 12.242,20.552 C11.194,20.263 9.319,20.091 8.991,17.704 C9.375,17.808 9.609,17.925 10.29,17.817 C8.983,16.993 7.532,16.298 7.611,14.174 C7.922,14.491 8.775,14.692 9.071,14.631 C8.303,14.398 6.922,11.387 8.097,9.85 C10.081,11.64 12.172,13.332 15.901,13.493 C16.128,11.279 17.141,9.794 19.069,9.168 C20.909,8.689 22.324,9.428 22.97,10.306 C23.707,10.082 24.423,9.84 25.163,9.621 C25.159,10.454 24.594,11.084 24.228,11.33 C24.975,11.495 25.651,10.855 25.651,10.855 C25.467,11.818 24.557,12.58 23.944,12.809 L23.944,12.809 Z" fill-rule="nonzero"></path>
                    </g>
                </g>
            </g>
        </g>
    </g>
</svg>