<?xml version="1.0" encoding="UTF-8"?>
<svg width="172px" height="194px" viewBox="0 0 172 194" version="1.1" xmlns="http://www.w3.org/2000/svg" xmlns:xlink="http://www.w3.org/1999/xlink">
    <!-- Generator: Sketch 54.1 (76490) - https://sketchapp.com -->
    <title>warranty</title>
    <desc>Created with Sketch.</desc>
    <g id="Pages" stroke="none" stroke-width="1" fill="none" fill-rule="evenodd">
        <g id="Index" transform="translate(-1082.000000, -1203.000000)" fill-rule="nonzero">
            <g id="services" transform="translate(-5.000000, 1142.000000)">
                <g id="Warranty" transform="translate(145.000000, 61.000000)">
                    <g id="warranty" transform="translate(942.000000, 0.000000)">
                        <g id="Group" transform="translate(6.000000, 6.000000)" fill="#FFFFFF">
                            <path d="M72.694,168.636 C72.59,168.506 62.199,155.64 60.085,152.876 C58.764,151.149 56.778,150.198 54.492,150.198 C51.932,150.198 49.656,151.368 48.98,151.751 L43.494,154.494 C41.721,154.015 37.907,152.544 34.214,148.226 C30.93,144.387 30.953,139.24 31.128,137.127 L37.021,131.234 C40.114,128.517 39.473,124.718 38.267,122.803 L38.048,122.492 C38.048,122.492 25.186,106.271 23.382,103.994 C22.393,102.745 20.907,102.056 19.198,102.056 C16.349,102.056 13.319,104.031 12.442,104.648 C1.557,112.397 0.856,119.21 0.811,119.961 L0.787,120.375 L0.861,120.784 C7.273,156.51 26.887,171.921 36.314,179.327 C37.462,180.228 38.454,181.008 39.168,181.633 C45.731,187.38 52.93,188 55.721,188 C58.096,187.999 60.201,187.595 61.81,186.829 C66.176,184.751 71.235,178.819 72.682,177.051 C75.183,173.992 73.965,170.452 72.85,168.843 L72.694,168.636 L72.694,168.636 Z M58.801,180.509 C58.302,180.746 57.231,181 55.72,181 C54.16,181 48.688,180.666 43.776,176.368 C42.922,175.621 41.863,174.789 40.637,173.825 C31.943,166.995 13.908,152.824 7.857,120.141 C8.146,119.162 9.686,115.203 16.477,110.37 C17.1409934,109.915523 17.8512958,109.532717 18.596,109.228 L32.098,126.258 L24.57,133.785 L24.367,134.84 C24.286,135.262 22.456,145.249 28.894,152.777 C35.18,160.126 42.144,161.444 43.477,161.633 L44.559,161.787 L52.203,157.964 L52.421,157.846 C52.702,157.679 53.756,157.198 54.492,157.198 C54.528,157.198 54.557,157.199 54.58,157.201 C56.729,160.001 65.685,171.098 67.08,172.825 C67.0807192,172.828547 67.0820743,172.831935 67.084,172.835 C64.522,175.93 60.911,179.504 58.801,180.509 L58.801,180.509 Z M132.85,59.824 C138.362,54.647 140.006,47.849 137.883,39.041 C137.675455,38.1853006 137.033395,37.501685 136.192374,37.2409542 C135.351353,36.9802234 134.43519,37.180763 133.78,37.769 L125.559,45.172 C124.121,44.377 121.883,42.721 121.094,39.842 L127.897,33.113 C128.843795,32.1753059 128.889524,30.6600839 128.001,29.667 L127.815,29.46 C127.621963,29.2439934 127.392474,29.063584 127.137,28.927 C126.977,28.841 123.149,26.811 118.313,26.811 C113.604,26.811 109.454,28.732 106.311,32.367 C100.311,39.305 101.754,47.409 102.768,50.838 L99.28,54.326 L88.996,45.09 L93.713,41.824 L73.671,28.1 L63.07,38.703 L76.794,58.744 L80.06,54.027 L89.297,64.309 L86.002,67.603 C84.502,67.125 82.119,66.551 79.339,66.551 C73.91,66.551 69.103,68.725 65.377,72.91 C65.106,73.239 58.778,81.075 62.626,91.531 C62.910421,92.3036051 63.5568609,92.8867441 64.3545891,93.0903216 C65.1523173,93.2938992 65.9991382,93.0918353 66.619,92.55 L74.914,85.291 C76.237,85.858 78.536,87.371 79.573,91.216 L72.189,98.732 C71.5541191,99.3765465 71.3173653,100.313997 71.5700727,101.182705 C71.8227801,102.051412 72.5254467,102.715585 73.407,102.919 C73.517,102.944 76.131,103.542 79.582,103.542 C86.422,103.542 91.694,101.271 94.827,96.975 C98.19,92.362 98.921,87.542 98.821,83.887 L115.038,100.104 L115.21,100.262 C116.731,101.522 119.528,102.987 122.661,102.987 C124.888,102.987 127.286,102.246 129.513,100.163 L135.031,94.647 L135.133,94.543 C140.145,89.185 137.391,82.845 135.233,80.241 L118.288,63.282 C119.315,63.388 120.436,63.463 121.61,63.463 C126.498,63.462 130.279,62.238 132.85,59.824 L132.85,59.824 Z M79.551,45.978 L76.817,49.927 L69.541,39.302 L74.272,34.57 L84.897,41.846 L80.947,44.58 L95.739,57.866 L91.645,61.959 L92.836,60.767 L79.551,45.978 L79.551,45.978 Z M93.113,79.502 C93.222,79.815 95.728,87.248 90.785,94.029 C88.015,97.827 83.037,98.555 79.385,98.541 L84.088,93.754 C84.654,93.178 84.908,92.363 84.768,91.567 C82.977,81.42 75.023,80.083 74.685,80.031 C73.9556326,79.9202907 73.2144593,80.1356588 72.658,80.62 L66.454,86.048 C65.932,80.488 68.867,76.559 69.213,76.116 C71.934,73.086 75.34,71.55 79.338,71.55 C82.853,71.55 85.569,72.761 85.587,72.77 C86.538497,73.2101243 87.6635101,73.0101131 88.405,72.269 L107.405,53.269 C108.130056,52.5457747 108.339071,51.4527097 107.932,50.513 C107.897,50.43 104.438,42.173 110.09,35.637 C112.285,33.098 115.051,31.811 118.311,31.811 C119.541,31.811 120.694,31.994 121.676,32.232 L116.629,37.225 C116.078451,37.7687662 115.810737,38.5368281 115.904,39.305 C116.916,47.605 124.873,50.382 125.211,50.496 C126.067145,50.7844506 127.012295,50.5891529 127.684,49.985 L133.733,44.538 C134.106,49.402 132.713,53.092 129.424,56.18 C127.416,58.067 124.065,58.463 121.606,58.463 C117.917,58.463 114.655,57.598 114.624,57.59 C113.755508,57.3549048 112.827665,57.6042388 112.194,58.243 L93.694,76.91 C93.0239355,77.5936228 92.7988556,78.5977656 93.113,79.502 L93.113,79.502 Z M131.525,91.079 L126.046,96.555 C122.798,99.535 119.146,96.987 118.47,96.468 L99.827,77.823 L114.768,62.748 L112.733,64.801 L131.44,83.507 C131.9,84.099 134.537,87.794 131.525,91.079 Z M115.473,62.882 L115.539,62.894 C115.516968,62.8901762 115.494968,62.886176 115.473,62.882 L115.473,62.882 Z" id="Shape"></path>
                            <path d="M99.162,0.002 C62.754,0.002 33.24,29.516 33.24,65.924 C33.24,99.441 58.26,127.096 90.638,131.278 L90.638,157.502 C90.638,157.502 148.077,136.259 162.607,83.88 C162.685,83.597 162.746,83.342 162.818,83.068 C162.931,82.644 163.043,82.218 163.148,81.791 C163.212,81.528 163.267,81.277 163.326,81.022 C164.490882,76.073724 165.080785,71.0075396 165.084,65.924 C165.084,29.516 135.57,0.002 99.162,0.002 L99.162,0.002 Z M156.51,79.424 L156.504,79.451 L156.498,79.478 L156.469,79.608 C156.43,79.778 156.393,79.947 156.35,80.123 C156.256,80.499 156.159,80.874 156.049,81.284 L155.945,81.684 C155.919548,81.7924676 155.892211,81.9004839 155.863,82.008 C150.299,102.064 137.343,119.708 117.357,134.45 C109.984,139.888 102.949,143.914 97.638,146.625 L97.638,125.123 L91.534,124.335 C62.291,120.558 40.239,95.446 40.239,65.923 C40.239,33.433 66.671,7.001 99.161,7.001 C131.649,7.001 158.083,33.433 158.083,65.923 C158.079807,70.4688618 157.551981,74.9991674 156.51,79.424 L156.51,79.424 Z" id="Shape"></path>
                        </g>
                        <path d="M55.583,187.998 C52.792,187.998 45.594,187.378 39.029,181.634 C38.315,181.009 37.323,180.23 36.175,179.328 C26.749,171.922 7.134,156.511 0.722,120.785 L0.648,120.376 L0.672,119.962 C0.716,119.21 1.418,112.398 12.303,104.649 C13.18,104.032 16.21,102.057 19.059,102.057 C20.767,102.057 22.253,102.745 23.243,103.995 C25.047,106.272 37.909,122.493 37.909,122.493 L38.128,122.804 C39.334,124.719 39.975,128.518 36.882,131.235 L30.989,137.128 C30.814,139.24 30.791,144.388 34.075,148.227 C37.767,152.544 41.582,154.016 43.355,154.495 L48.841,151.752 C49.517,151.369 51.793,150.199 54.353,150.199 C56.639,150.199 58.625,151.15 59.946,152.877 C62.06,155.641 72.45,168.507 72.555,168.637 L72.71,168.844 C73.825,170.453 75.043,173.993 72.542,177.052 C71.095,178.821 66.037,184.752 61.67,186.83 C60.063,187.593 57.958,187.997 55.583,187.998 L55.583,187.998 Z M7.72,120.14 C13.771,152.823 31.806,166.994 40.5,173.824 C41.726,174.788 42.785,175.62 43.639,176.367 C48.551,180.665 54.023,180.999 55.583,180.999 C57.094,180.999 58.165,180.745 58.664,180.508 C60.774,179.503 64.386,175.929 66.948,172.834 L66.944,172.824 C65.55,171.097 56.593,160 54.444,157.2 C54.4147207,157.197785 54.3853622,157.196784 54.356,157.197 C53.62,157.197 52.566,157.678 52.285,157.845 L52.067,157.963 L44.423,161.786 L43.341,161.632 C42.008,161.443 35.044,160.124 28.758,152.776 C22.32,145.249 24.15,135.261 24.231,134.839 L24.434,133.784 L31.962,126.257 L18.46,109.227 C17.849,109.464 16.993,109.915 16.341,110.369 C9.548,115.202 8.008,119.161 7.72,120.14 L7.72,120.14 Z" id="Shape" fill="#3A3A3A"></path>
                        <path d="M79.443,103.54 C75.991,103.54 73.378,102.942 73.268,102.917 C72.387278,102.712451 71.6856346,102.048296 71.433082,101.18012 C71.1805294,100.311944 71.416429,99.3750577 72.05,98.73 L79.434,91.214 C78.397,87.369 76.098,85.857 74.775,85.289 L66.48,92.548 C65.859926,93.0889145 65.0136012,93.2905124 64.2162571,93.0872326 C63.4189131,92.8839528 62.7724116,92.3017645 62.487,91.53 C58.639,81.073 64.967,73.237 65.238,72.908 C68.964,68.723 73.771,66.549 79.2,66.549 C81.98,66.549 84.362,67.123 85.863,67.601 L102.629,50.836 C101.616,47.406 100.172,39.302 106.172,32.365 C109.315,28.731 113.465,26.809 118.174,26.809 C123.011,26.809 126.838,28.838 126.999,28.925 C127.254,29.062 127.483,29.242 127.676,29.458 L127.862,29.665 C128.752,30.658 128.707,32.173 127.758,33.111 L120.955,39.84 C121.744,42.719 123.983,44.375 125.42,45.17 L133.642,37.767 C134.296766,37.1775567 135.213448,36.9762597 136.054938,37.2371359 C136.896428,37.4980121 137.538487,38.1825457 137.745,39.039 C139.868,47.848 138.223,54.645 132.712,59.822 C130.142,62.236 126.359,63.46 121.47,63.46 C118.681,63.46 116.146,63.053 114.631,62.746 L98.127,79.399 C98.856,82.58 99.758,90.019 94.688,96.973 C91.555,101.269 86.283,103.54 79.443,103.54 L79.443,103.54 Z M79.247,98.539 C82.898,98.554 87.878,97.825 90.647,94.027 C95.591,87.246 93.085,79.813 92.976,79.5 C92.6609599,78.5953271 92.8865489,77.5902545 93.558,76.907 L112.058,58.24 C112.691556,57.6010513 113.619509,57.351688 114.488,57.587 C114.518,57.595 117.781,58.46 121.47,58.46 C123.928,58.46 127.281,58.064 129.288,56.177 C132.576,53.089 133.969,49.399 133.597,44.535 L127.548,49.982 C126.876098,50.5857633 125.931172,50.7810149 125.075,50.493 C124.737,50.379 116.78,47.602 115.768,39.302 C115.673858,38.5339225 115.941287,37.7656185 116.492,37.222 L121.539,32.229 C120.437882,31.9563413 119.308352,31.8150242 118.174,31.808 C114.915,31.808 112.15,33.096 109.953,35.634 C104.302,42.17 107.761,50.427 107.796,50.51 C108.201,51.45 107.992,52.543 107.268,53.266 L88.268,72.266 C87.5268303,73.0069415 86.4021911,73.2069572 85.451,72.767 C85.433,72.759 82.716,71.547 79.201,71.547 C75.203,71.547 71.797,73.083 69.076,76.113 C68.729,76.555 65.794,80.485 66.317,86.045 L72.521,80.617 C73.0769911,80.1318013 73.8185684,79.9163158 74.548,80.028 C74.885,80.08 82.839,81.417 84.63,91.564 C84.7708214,92.3599196 84.5178292,93.1747854 83.951,93.751 L79.247,98.539 Z" id="Shape" fill="#F0C42E"></path>
                        <g id="Group" transform="translate(62.000000, 28.000000)" fill="#3A3A3A">
                            <path d="M17.921,26.025 L27.158,36.307 L30.698,32.766 L17.413,17.976 L14.678,21.925 L7.402,11.301 L12.134,6.569 L22.759,13.845 L18.809,16.579 L33.6,29.865 L37.141,26.324 L26.858,17.088 L31.575,13.822 L11.533,0.098 L0.932,10.701 L14.656,30.742 L17.921,26.025 Z M56.147,35.28 C54.9668199,35.1582022 53.7931443,34.9799984 52.63,34.746 L50.596,36.799 L69.302,55.505 C69.762,56.097 72.399,59.792 69.386,63.077 L63.908,68.553 C60.66,71.533 57.007,68.985 56.332,68.466 L37.69,49.821 L36.127,51.399 C36.372,52.469 36.632,54.029 36.682,55.884 L52.899,72.102 L53.072,72.26 C54.593,73.52 57.39,74.985 60.522,74.985 C62.75,74.985 65.147,74.244 67.375,72.161 L72.893,66.645 L72.995,66.542 C78.007,61.184 75.252,54.843 73.094,52.239 L56.147,35.28 Z" id="Shape"></path>
                        </g>
                        <path d="M99.023,7 C131.512,7 157.945,33.432 157.945,65.922 C157.945,70.43 157.416,74.972 156.372,79.422 L156.366,79.449 L156.359,79.476 L156.33,79.606 C156.292,79.776 156.254,79.945 156.212,80.121 C156.118,80.497 156.021,80.872 155.91,81.282 L155.807,81.682 C155.781,81.79 155.753,81.898 155.724,82.006 C150.16,102.062 137.204,119.706 117.218,134.448 C109.845,139.886 102.81,143.912 97.499,146.623 L97.499,125.121 L91.395,124.333 C62.152,120.556 40.101,95.444 40.101,65.921 C40.102,33.432 66.534,7 99.023,7 L99.023,7 Z M99.023,0 C62.616,0 33.102,29.514 33.102,65.922 C33.102,99.439 58.122,127.094 90.5,131.276 L90.5,157.5 C90.5,157.5 147.939,136.257 162.47,83.878 C162.548,83.595 162.608,83.34 162.68,83.066 C162.794,82.642 162.905,82.216 163.011,81.789 C163.074,81.526 163.13,81.275 163.188,81.02 C164.353374,76.0718104 164.943284,71.0055687 164.946,65.922 C164.945,29.514 135.432,0 99.023,0 Z" id="Shape" fill="#3A3A3A"></path>
                    </g>
                </g>
            </g>
        </g>
    </g>
</svg>